<?xml version="1.0" standalone="no"?>
<!DOCTYPE svg PUBLIC "-//W3C//DTD SVG 20010904//EN"
 "http://www.w3.org/TR/2001/REC-SVG-20010904/DTD/svg10.dtd">
<svg version="1.0" xmlns="http://www.w3.org/2000/svg"
 width="80.000000pt" height="80.000000pt" viewBox="0 0 80.000000 80.000000"
 preserveAspectRatio="xMidYMid meet">

<g transform="translate(0.000000,80.000000) scale(0.100000,-0.100000)"
fill="#000000" stroke="none">
<path d="M0 400 l0 -400 400 0 400 0 0 400 0 400 -400 0 -400 0 0 -400z m549
272 l30 -18 -66 -117 c-37 -64 -72 -117 -79 -117 -6 0 -21 8 -33 18 l-21 17
67 117 c38 65 69 118 70 118 2 0 16 -8 32 -18z m-159 -23 c54 -11 56 -15 39
-52 -11 -23 -15 -25 -70 -20 -75 7 -109 -12 -109 -61 0 -124 260 -253 332
-165 22 27 16 60 -23 116 -29 41 -29 43 -13 68 21 32 27 32 60 -7 160 -190
-12 -356 -248 -240 -119 58 -202 176 -184 260 9 37 60 90 95 98 14 3 31 7 36
9 18 6 34 5 85 -6z m-60 -384 c0 -7 -4 -17 -10 -20 -30 -18 1 -25 116 -25
l125 0 -3 -37 -3 -38 -156 -3 c-140 -2 -159 -1 -179 16 l-23 19 37 66 37 67
29 -15 c17 -9 30 -22 30 -30z"/>
</g>
</svg>
